<?xml version="1.0" encoding="utf-8"?>
<!-- Generator: Adobe Illustrator 26.0.2, SVG Export Plug-In . SVG Version: 6.00 Build 0)  -->
<svg version="1.1" id="z_x24_-0" xmlns:svgjs="http://svgjs.dev/svgjs"
	 xmlns="http://www.w3.org/2000/svg" xmlns:xlink="http://www.w3.org/1999/xlink" x="0px" y="0px" viewBox="0 0 1000 1000"
	 style="enable-background:new 0 0 1000 1000;" xml:space="preserve">
<style type="text/css">
	.st0{fill:#915EFF;}
	.st1{display:none;fill:none;}
</style>
<g transform="matrix(0.7,0,0,0.7,149.57575757575756,389.51585312495826)">
	<g id="tight-bounds" transform="matrix(1,0,0,1,0.2400000000000091,0.13273632371979716)">
		<g>
			<g>
				<g id="icon-0">
					<g>
						<path class="st0" d="M-187.9,154.4c0-382.5,310.1-692.7,692.7-692.7s692.7,310.1,692.7,692.7S887.3,847,504.8,847
							S-187.9,536.9-187.9,154.4z M504.8,795.4c354,0,641.1-287,641.1-641.1s-287-641.1-641.1-641.1s-641.1,287.1-641.1,641.1
							S150.7,795.4,504.8,795.4z"/>
					</g>
					<g transform="matrix(1,0,0,1,50.81116827183688,43.22981170723014)">
						<g>
							<g>
								<path class="st0" d="M454,137.4c-2.3,0-4.7-0.6-6.7-1.9l-328-196.8c-3.9-2.3-6.4-6.7-6.4-11.2c0-4.5,2.5-8.9,6.4-11.2
									l327.9-196.8c4.1-2.5,9.3-2.5,13.5,0L788.6-83.7c3.9,2.3,6.4,6.7,6.4,11.2c0,4.7-2.5,8.9-6.4,11.2L460.7,135.5
									C458.6,136.8,456.3,137.4,454,137.4z M151.6-72.5L454,109L756.4-72.5L454-253.9L151.6-72.5z"/>
								<path class="st0" d="M454,504.6c-2,0-4.1-0.4-6.1-1.5L120,332.7c-4.4-2.2-7.1-6.7-7.1-11.7V-72.5c0-4.7,2.5-9,6.7-11.4
									c4.1-2.3,9.2-2.3,13.3,0.1l327.9,196.8c3.9,2.3,6.4,6.7,6.4,11.2v367.2c0,4.7-2.3,8.9-6.3,11.2
									C458.6,503.9,456.3,504.6,454,504.6z M139.2,313.1L440.9,470V131.7L139.2-49.4V313.1z"/>
								<path class="st0" d="M454,504.6c-2.3,0-4.7-0.6-6.8-1.9c-3.9-2.3-6.3-6.6-6.3-11.2V124.3c0-4.7,2.5-8.9,6.4-11.2L775-83.7
									c4.1-2.5,9-2.5,13.3-0.1c4.1,2.3,6.7,6.7,6.7,11.4v393.4c0,5-2.8,9.3-7.1,11.7L460,503C458.1,504,456,504.6,454,504.6z
									 M467.1,131.7V470l301.7-156.9V-49.4L467.1,131.7z"/>
								<g>
									<path class="st0" d="M454-223.3c-7.3,0-13.1-5.8-13.1-13.1v-32.8c0-7.3,5.8-13.1,13.1-13.1c7.3,0,13.1,5.8,13.1,13.1v32.8
										C467.1-229.3,461.1-223.3,454-223.3z"/>
									<path class="st0" d="M454,39.1c-7.3,0-13.1-5.8-13.1-13.1v-65.6c0-7.3,5.8-13.1,13.1-13.1c7.3,0,13.1,5.8,13.1,13.1V26
										C467.1,33.1,461.1,39.1,454,39.1z M454-92.2c-7.3,0-13.1-5.8-13.1-13.1v-65.6c0-7.3,5.8-13.1,13.1-13.1
										c7.3,0,13.1,5.8,13.1,13.1v65.6C467.1-98,461.1-92.2,454-92.2z"/>
									<path class="st0" d="M454,137.4c-7.3,0-13.1-5.8-13.1-13.1V91.5c0-7.3,5.8-13.1,13.1-13.1c7.3,0,13.1,5.8,13.1,13.1v32.8
										C467.1,131.4,461.1,137.4,454,137.4z"/>
								</g>
								<g>
									<path class="st0" d="M425.9,154.3c-4.5,0-8.7-2.3-11.2-6.4c-3.8-6.3-1.7-14.3,4.5-18.1l28.1-16.9
										c6.3-3.8,14.3-1.7,18.1,4.5s1.7,14.3-4.5,18.1l-28.1,16.9C430.4,153.6,428.1,154.3,425.9,154.3z"/>
									<path class="st0" d="M208.5,284.7c-4.5,0-8.7-2.3-11.2-6.4c-3.8-6.3-1.7-14.3,4.5-18.1l54.3-32.6
										c6.3-3.8,14.3-1.7,18.1,4.5s1.7,14.3-4.5,18.1l-54.3,32.6C213.1,284.1,210.9,284.7,208.5,284.7z M317.2,219.4
										c-4.5,0-8.7-2.3-11.2-6.4c-3.8-6.3-1.7-14.3,4.5-18.1l54.3-32.6c6.3-3.8,14.3-1.7,18.1,4.5s1.7,14.3-4.5,18.1l-54.3,32.6
										C321.7,218.8,319.4,219.4,317.2,219.4z"/>
									<path class="st0" d="M126.1,334c-4.5,0-8.7-2.3-11.2-6.4c-3.8-6.3-1.7-14.3,4.5-18.1l28.1-16.9c6.3-3.8,14.3-1.7,18.1,4.5
										c3.8,6.3,1.7,14.3-4.5,18.1l-28.1,16.9C130.6,333.5,128.3,334,126.1,334z"/>
								</g>
								<g>
									<path class="st0" d="M482.1,154.3c-2.3,0-4.7-0.6-6.7-1.9l-28.1-16.9c-6.3-3.8-8.2-11.8-4.5-18.1
										c3.8-6.3,11.8-8.2,18.1-4.5l28.1,16.9c6.3,3.8,8.2,11.8,4.5,18.1C490.8,152,486.5,154.3,482.1,154.3z"/>
									<path class="st0" d="M699.3,284.7c-2.3,0-4.7-0.6-6.7-1.9l-54.3-32.6c-6.3-3.8-8.2-11.8-4.5-18.1
										c3.8-6.3,11.8-8.2,18.1-4.5l54.3,32.6c6.3,3.8,8.2,11.8,4.5,18.1C708.2,282.3,703.8,284.7,699.3,284.7z M590.6,219.4
										c-2.3,0-4.7-0.6-6.7-1.9l-54.3-32.6c-6.3-3.8-8.2-11.8-4.5-18.1c3.8-6.3,11.8-8.3,18.1-4.5l54.3,32.6
										c6.3,3.8,8.2,11.8,4.5,18.1C599.5,217.2,595.1,219.4,590.6,219.4z"/>
									<path class="st0" d="M781.7,334c-2.3,0-4.7-0.6-6.7-1.9l-28.1-16.9c-6.3-3.8-8.2-11.8-4.5-18.1c3.8-6.3,11.8-8.2,18.1-4.5
										l28.1,16.9c6.3,3.8,8.2,11.8,4.5,18.1C790.6,331.9,786.3,334,781.7,334z"/>
								</g>
							</g>
						</g>
					</g>
				</g>
			</g>
		</g>
		<rect x="-222.1" y="-75.1" class="st1" width="1451.9" height="457.8"/>
	</g>
</g>
</svg>
